Venus & Vegas DVDRIP XViD - IMAGiNE


Ripper ...........:IMAGiNE                                         
IMDB Rating.......:6.1/10                            
Video Codec.......:XVID                                            
Release Date......:N/A
Audio Codec.......:AC-3                                            
Theatre Date......:N/A
Audio Bitrate.....:448                                             
Runtime...........:1h 35mn
Subtitles.........:NIL                                             
Language..........:ENGLISH
Resolution........:720 x 400                                       
IMDb URL..........:http://www.imdb.com/title/tt0423474/


DETAILS:

Video
ID                               : 0
Format                           : MPEG-4 Visual
Format profile                   : Advanced Simple@L5
Format settings, BVOP            : Yes
Format settings, QPel            : No
Format settings, GMC             : No warppoints
Format settings, Matrix          : Default (H.263)
Muxing mode                      : Packed bitstream
Codec ID                         : XVID
Codec ID/Hint                    : XviD
Duration                         : 1h 35mn
Bit rate                         : 1 302 Kbps
Width                            : 720 pixels
Height                           : 400 pixels
Display aspect ratio             : 16:9
Frame rate                       : 25.000 fps
Color space                      : YUV
Chroma subsampling               : 4:2:0
Bit depth                        : 8 bits
Scan type                        : Progressive
Compression mode                 : Lossy
Bits/(Pixel*Frame)               : 0.181
Stream size                      : 891 MiB (74%)
Writing library                  : XviD 58


Audio
ID                               : 1
Format                           : AC-3
Format/Info                      : Audio Coding 3
Mode extension                   : CM (complete main)
Codec ID                         : 2000
Duration                         : 1h 35mn
Bit rate mode                    : Constant
Bit rate                         : 448 Kbps
Channel(s)                       : 6 channels
Channel positions                : Front: L C R, Side: L R, LFE
Sampling rate                    : 48.0 KHz
Bit depth                        : 16 bits
Compression mode                 : Lossy
Stream size                      : 306 MiB (25%)
Alignment                        : Aligned on interleaves
Interleave, duration             : 40 ms (1.00 video frame)
Interleave, preload duration     : 512 ms


SOURCES:

VIDEO: Thankd m8ty ;-)
AUDIO: Thankd m8ty ;-)


NOTES:

Here we go with a nice dvdrip.....source was really nice as you would expect 
so we just ripped it.

Audio we just remuxed AC3 back to our encode.;-)


Enjoy folks ;-)


Screens:

 
http://leetleech.org/images/47548547521082362173.jpg
 
http://leetleech.org/images/97193800166685302207.jpg
 
http://leetleech.org/images/60301777402340693248.jpg


ENJOY!